<svg width="305" height="313" viewBox="0 0 305 313" fill="none" xmlns="http://www.w3.org/2000/svg">
<path d="M296.203 182.946C307.932 189.017 307.932 198.86 296.203 204.931L152.5 279.316L8.79663 204.931C-2.93222 198.86 -2.93222 189.017 8.79663 182.946L131.263 119.553C142.992 113.482 162.008 113.482 173.737 119.553L296.203 182.946Z" fill="#FB6949" fill-opacity="0.39"/>
<path d="M93.5 248.776L89.9055 289.364C88.9997 299.592 99.7515 306.783 108.859 302.041L152.5 279.316L93.5 248.776Z" fill="#FB6949" fill-opacity="0.39"/>
<g opacity="0.8">
<path d="M8.79664 130.054C-2.93221 123.983 -2.93221 114.14 8.79663 108.069L152.5 33.6835L296.203 108.069C307.932 114.14 307.932 123.983 296.203 130.054L173.737 193.447C162.008 199.518 142.992 199.518 131.263 193.447L8.79664 130.054Z" fill="#FB6949"/>
<path d="M211.5 64.2237L215.095 23.6365C216 13.4085 205.248 6.21692 196.141 10.9592L152.5 33.6835L211.5 64.2237Z" fill="#FB6949"/>
</g>
<path fill-rule="evenodd" clip-rule="evenodd" d="M245.114 156.5L173.737 119.553C162.008 113.482 142.992 113.482 131.263 119.553L59.8867 156.5L131.263 193.447C142.992 199.518 162.008 199.518 173.737 193.447L245.114 156.5Z" fill="#FB6949"/>
</svg>
