<svg width="1558" height="313" viewBox="0 0 1558 313" fill="none" xmlns="http://www.w3.org/2000/svg">
<path d="M296.203 182.946C307.932 189.017 307.932 198.86 296.203 204.931L152.5 279.316L8.79663 204.931C-2.93222 198.86 -2.93222 189.017 8.79663 182.946L131.263 119.553C142.992 113.482 162.008 113.482 173.737 119.553L296.203 182.946Z" fill="white" fill-opacity="0.5"/>
<path d="M93.5 248.776L89.9055 289.364C88.9997 299.592 99.7515 306.783 108.859 302.041L152.5 279.316L93.5 248.776Z" fill="white" fill-opacity="0.5"/>
<g opacity="0.8">
<path d="M8.79664 130.054C-2.93221 123.983 -2.93221 114.14 8.79663 108.069L152.5 33.6835L296.203 108.069C307.932 114.14 307.932 123.983 296.203 130.054L173.737 193.447C162.008 199.518 142.992 199.518 131.263 193.447L8.79664 130.054Z" fill="white"/>
<path d="M211.5 64.2237L215.095 23.6365C216 13.4085 205.248 6.21692 196.141 10.9592L152.5 33.6835L211.5 64.2237Z" fill="white"/>
</g>
<path fill-rule="evenodd" clip-rule="evenodd" d="M245.114 156.5L173.737 119.553C162.008 113.482 142.992 113.482 131.263 119.553L59.8865 156.5L131.263 193.447C142.992 199.518 162.008 199.518 173.737 193.447L245.114 156.5Z" fill="white"/>
<path d="M428.628 221.964C413.732 221.964 400.964 218.468 390.324 211.476C379.836 204.484 372.464 194.908 368.208 182.748L386.448 172.26C392.68 191.564 406.892 201.216 429.084 201.216C440.028 201.216 448.388 199.012 454.164 194.604C459.94 190.044 462.828 184.04 462.828 176.592C462.828 168.992 459.94 163.292 454.164 159.492C448.388 155.692 438.736 151.664 425.208 147.408C418.52 145.28 413.428 143.608 409.932 142.392C406.436 141.024 402.028 139.048 396.708 136.464C391.54 133.728 387.664 130.992 385.08 128.256C382.496 125.368 380.14 121.644 378.012 117.084C376.036 112.524 375.048 107.356 375.048 101.58C375.048 87.748 379.912 76.804 389.64 68.748C399.368 60.54 411.224 56.436 425.208 56.436C437.824 56.436 448.768 59.628 458.04 66.012C467.464 72.396 474.532 80.832 479.244 91.32L461.46 101.58C454.62 85.164 442.536 76.956 425.208 76.956C416.544 76.956 409.552 79.084 404.232 83.34C398.912 87.596 396.252 93.372 396.252 100.668C396.252 107.66 398.76 112.98 403.776 116.628C408.792 120.276 417.456 124.076 429.768 128.028C434.176 129.396 437.292 130.384 439.116 130.992C440.94 131.6 443.752 132.664 447.552 134.184C451.504 135.704 454.392 136.92 456.216 137.832C458.04 138.744 460.472 140.036 463.512 141.708C466.704 143.38 469.06 144.976 470.58 146.496C472.1 148.016 473.848 149.916 475.824 152.196C477.952 154.324 479.472 156.528 480.384 158.808C481.296 161.088 482.056 163.748 482.664 166.788C483.424 169.676 483.804 172.792 483.804 176.136C483.804 190.12 478.712 201.292 468.528 209.652C458.344 217.86 445.044 221.964 428.628 221.964ZM585.521 105H605.357V219H585.521V202.584C577.465 215.504 565.153 221.964 548.585 221.964C535.209 221.964 524.493 217.784 516.437 209.424C508.381 200.912 504.353 189.436 504.353 174.996V105H524.189V173.856C524.189 183.128 526.697 190.348 531.713 195.516C536.729 200.532 543.645 203.04 552.461 203.04C562.341 203.04 570.321 200 576.401 193.92C582.481 187.688 585.521 178.188 585.521 165.42V105ZM698.484 102.036C714.444 102.036 728.048 107.888 739.296 119.592C750.544 131.144 756.168 145.28 756.168 162C756.168 178.72 750.544 192.932 739.296 204.636C728.048 216.188 714.444 221.964 698.484 221.964C679.636 221.964 665.272 214.44 655.392 199.392V264.6H635.556V105H655.392V124.608C665.272 109.56 679.636 102.036 698.484 102.036ZM695.976 202.812C707.376 202.812 716.952 198.936 724.704 191.184C732.456 183.28 736.332 173.552 736.332 162C736.332 150.448 732.456 140.796 724.704 133.044C716.952 125.14 707.376 121.188 695.976 121.188C684.424 121.188 674.772 125.14 667.02 133.044C659.268 140.796 655.392 150.448 655.392 162C655.392 173.552 659.268 183.28 667.02 191.184C674.772 198.936 684.424 202.812 695.976 202.812ZM793.745 171.12C795.721 181.304 800.357 189.208 807.653 194.832C815.101 200.456 824.221 203.268 835.013 203.268C850.061 203.268 861.005 197.72 867.845 186.624L884.717 196.2C873.621 213.376 856.901 221.964 834.557 221.964C816.469 221.964 801.725 216.34 790.325 205.092C779.077 193.692 773.453 179.328 773.453 162C773.453 144.824 779.001 130.536 790.097 119.136C801.193 107.736 815.557 102.036 833.189 102.036C849.909 102.036 863.513 107.964 874.001 119.82C884.641 131.524 889.961 145.66 889.961 162.228C889.961 165.116 889.733 168.08 889.277 171.12H793.745ZM833.189 120.732C822.549 120.732 813.733 123.772 806.741 129.852C799.749 135.78 795.417 143.76 793.745 153.792H869.897C868.225 143 863.969 134.792 857.129 129.168C850.289 123.544 842.309 120.732 833.189 120.732ZM932.599 124.152C939.135 110.016 950.991 102.948 968.167 102.948V123.696C958.439 123.24 950.079 125.824 943.087 131.448C936.095 137.072 932.599 146.116 932.599 158.58V219H912.763V105H932.599V124.152ZM1007.41 124.152C1013.95 110.016 1025.8 102.948 1042.98 102.948V123.696C1033.25 123.24 1024.89 125.824 1017.9 131.448C1010.91 137.072 1007.41 146.116 1007.41 158.58V219H987.575V105H1007.41V124.152ZM1070.06 171.12C1072.04 181.304 1076.67 189.208 1083.97 194.832C1091.42 200.456 1100.54 203.268 1111.33 203.268C1126.38 203.268 1137.32 197.72 1144.16 186.624L1161.03 196.2C1149.94 213.376 1133.22 221.964 1110.87 221.964C1092.79 221.964 1078.04 216.34 1066.64 205.092C1055.39 193.692 1049.77 179.328 1049.77 162C1049.77 144.824 1055.32 130.536 1066.41 119.136C1077.51 107.736 1091.87 102.036 1109.51 102.036C1126.23 102.036 1139.83 107.964 1150.32 119.82C1160.96 131.524 1166.28 145.66 1166.28 162.228C1166.28 165.116 1166.05 168.08 1165.59 171.12H1070.06ZM1109.51 120.732C1098.87 120.732 1090.05 123.772 1083.06 129.852C1076.07 135.78 1071.73 143.76 1070.06 153.792H1146.21C1144.54 143 1140.29 134.792 1133.45 129.168C1126.61 123.544 1118.63 120.732 1109.51 120.732ZM1252.01 102.036C1267.97 102.036 1281.57 107.888 1292.82 119.592C1304.07 131.144 1309.69 145.28 1309.69 162C1309.69 178.72 1304.07 192.932 1292.82 204.636C1281.57 216.188 1267.97 221.964 1252.01 221.964C1233.16 221.964 1218.8 214.44 1208.92 199.392V264.6H1189.08V105H1208.92V124.608C1218.8 109.56 1233.16 102.036 1252.01 102.036ZM1249.5 202.812C1260.9 202.812 1270.48 198.936 1278.23 191.184C1285.98 183.28 1289.86 173.552 1289.86 162C1289.86 150.448 1285.98 140.796 1278.23 133.044C1270.48 125.14 1260.9 121.188 1249.5 121.188C1237.95 121.188 1228.3 125.14 1220.54 133.044C1212.79 140.796 1208.92 150.448 1208.92 162C1208.92 173.552 1212.79 183.28 1220.54 191.184C1228.3 198.936 1237.95 202.812 1249.5 202.812ZM1429.58 204.636C1417.87 216.188 1403.66 221.964 1386.94 221.964C1370.22 221.964 1356.01 216.188 1344.3 204.636C1332.75 193.084 1326.98 178.872 1326.98 162C1326.98 145.128 1332.75 130.916 1344.3 119.364C1356.01 107.812 1370.22 102.036 1386.94 102.036C1403.66 102.036 1417.87 107.812 1429.58 119.364C1441.28 130.916 1447.13 145.128 1447.13 162C1447.13 178.872 1441.28 193.084 1429.58 204.636ZM1386.94 202.584C1398.34 202.584 1407.92 198.708 1415.67 190.956C1423.42 183.204 1427.3 173.552 1427.3 162C1427.3 150.448 1423.42 140.796 1415.67 133.044C1407.92 125.292 1398.34 121.416 1386.94 121.416C1375.69 121.416 1366.19 125.292 1358.44 133.044C1350.69 140.796 1346.81 150.448 1346.81 162C1346.81 173.552 1350.69 183.204 1358.44 190.956C1366.19 198.708 1375.69 202.584 1386.94 202.584ZM1485.17 135.78C1485.17 140.188 1487.37 143.76 1491.78 146.496C1496.19 149.08 1501.51 151.208 1507.74 152.88C1513.97 154.4 1520.2 156.224 1526.44 158.352C1532.67 160.328 1537.99 163.824 1542.4 168.84C1546.8 173.704 1549.01 180.012 1549.01 187.764C1549.01 198.1 1544.98 206.384 1536.92 212.616C1529.02 218.848 1518.84 221.964 1506.37 221.964C1495.28 221.964 1485.78 219.532 1477.87 214.668C1469.97 209.804 1464.34 203.344 1461 195.288L1478.1 185.484C1479.92 190.956 1483.34 195.288 1488.36 198.48C1493.38 201.672 1499.38 203.268 1506.37 203.268C1512.91 203.268 1518.3 202.052 1522.56 199.62C1526.82 197.036 1528.94 193.084 1528.94 187.764C1528.94 183.356 1526.74 179.86 1522.33 177.276C1517.92 174.54 1512.6 172.412 1506.37 170.892C1500.14 169.22 1493.91 167.32 1487.68 165.192C1481.44 163.064 1476.12 159.568 1471.72 154.704C1467.31 149.84 1465.1 143.608 1465.1 136.008C1465.1 126.128 1468.9 117.996 1476.5 111.612C1484.26 105.228 1493.91 102.036 1505.46 102.036C1514.73 102.036 1522.94 104.164 1530.08 108.42C1537.38 112.524 1542.85 118.3 1546.5 125.748L1529.86 135.096C1525.75 125.368 1517.62 120.504 1505.46 120.504C1499.84 120.504 1495.05 121.872 1491.1 124.608C1487.14 127.192 1485.17 130.916 1485.17 135.78Z" fill="white"/>
</svg>
